<?xml version="1.0" standalone="no"?>
<!DOCTYPE svg PUBLIC "-//W3C//DTD SVG 20010904//EN"
 "http://www.w3.org/TR/2001/REC-SVG-20010904/DTD/svg10.dtd">
<svg version="1.0" xmlns="http://www.w3.org/2000/svg"
 width="500.000000pt" height="500.000000pt" viewBox="0 0 500.000000 500.000000"
 preserveAspectRatio="xMidYMid meet">
<metadata>
Created by potrace 1.16, written by Peter Selinger 2001-2019
</metadata>
<g transform="translate(0.000000,500.000000) scale(0.100000,-0.100000)"
fill="#000000" stroke="none">
<path d="M2235 4984 c-178 -26 -232 -37 -341 -64 -277 -71 -549 -196 -802
-368 -185 -125 -406 -318 -533 -465 -56 -64 -59 -70 -59 -120 0 -52 1 -53 116
-192 64 -77 122 -141 128 -143 7 -2 24 13 37 32 23 34 192 205 274 276 210
185 450 332 685 420 203 76 345 111 555 136 143 17 252 18 383 4 453 -49 841
-209 1192 -491 107 -86 287 -260 345 -331 42 -54 56 -58 78 -25 8 12 58 74
110 137 l97 115 0 62 0 62 -62 68 c-464 500 -1001 793 -1613 880 -147 21 -473
25 -590 7z"/>
<path d="M2265 3999 c-322 -46 -647 -192 -920 -415 -105 -85 -305 -287 -305
-308 0 -6 10 -24 23 -40 17 -22 239 -289 252 -304 2 -2 50 43 107 100 119 120
168 162 293 245 118 79 175 107 321 158 159 57 284 78 459 79 176 1 287 -16
440 -66 257 -84 435 -199 655 -422 52 -53 97 -96 100 -96 3 0 27 28 55 63 27
34 52 64 55 67 3 3 25 30 50 60 24 30 61 74 82 97 21 24 38 49 38 57 0 19
-212 232 -310 312 -277 225 -596 368 -923 413 -91 13 -384 13 -472 0z"/>
<path d="M2375 3019 c-169 -23 -338 -89 -487 -191 -89 -60 -250 -204 -269
-239 -7 -13 19 -51 122 -175 72 -88 136 -163 144 -168 9 -7 33 9 87 59 172
160 327 225 536 225 203 0 374 -74 542 -236 l66 -63 26 32 c14 18 76 93 137
167 61 74 111 142 111 150 0 20 -134 150 -225 218 -74 55 -232 141 -306 166
-162 55 -340 75 -484 55z"/>
<path d="M4275 2053 c-185 -41 -264 -77 -342 -154 -96 -95 -138 -211 -131
-365 3 -74 9 -101 33 -150 40 -83 66 -113 188 -220 107 -93 108 -94 161 -94
70 0 93 -24 97 -100 3 -50 1 -56 -23 -70 -24 -13 -29 -13 -47 4 -17 15 -21 31
-21 77 0 54 -2 59 -25 65 -44 11 -334 -1 -347 -14 -7 -7 -27 -12 -45 -12 -42
0 -48 -20 -48 -150 0 -83 4 -101 27 -145 35 -67 90 -118 163 -152 51 -23 76
-28 165 -31 118 -4 254 20 344 61 62 29 158 114 191 171 56 96 82 223 64 319
-20 114 -60 165 -310 389 -47 42 -92 90 -99 107 -25 61 11 136 62 129 20 -3
23 -8 20 -40 -5 -49 14 -105 40 -119 25 -13 217 -12 289 1 29 6 57 16 61 23
15 23 21 80 15 153 -15 204 -162 326 -387 323 -41 -1 -84 -3 -95 -6z"/>
<path d="M545 2042 c-22 -2 -44 -8 -49 -13 -6 -5 -25 -9 -43 -9 -26 0 -35 -5
-42 -22 -4 -13 -18 -108 -30 -213 -20 -169 -98 -803 -135 -1100 -7 -60 -11
-115 -9 -122 6 -16 348 -19 358 -3 3 6 24 10 46 10 31 0 41 5 49 23 5 12 18
103 30 202 11 99 24 214 29 255 6 41 13 103 17 138 3 35 8 62 10 60 1 -2 12
-75 23 -162 l21 -159 -22 -179 c-19 -156 -20 -181 -8 -189 21 -12 387 -12 395
1 3 6 23 10 44 10 21 0 43 6 49 13 5 6 31 181 56 387 26 206 65 518 86 693 22
175 40 332 40 348 l0 29 -132 1 c-174 2 -232 -1 -236 -12 -2 -5 -21 -9 -42 -9
-45 0 -49 -7 -39 -75 32 -228 32 -248 14 -409 -10 -86 -22 -156 -26 -156 -5 0
-9 6 -9 13 0 23 -78 639 -82 642 -4 5 -316 11 -363 7z"/>
<path d="M1780 2043 c-25 -3 -49 -8 -54 -14 -6 -5 -27 -9 -47 -9 -33 0 -38 -3
-43 -27 -6 -29 -84 -658 -141 -1143 -8 -69 -20 -160 -26 -204 -10 -65 -9 -80
2 -87 20 -12 776 -12 784 1 3 6 23 10 44 10 21 0 44 6 50 13 13 16 52 294 44
314 -4 10 -50 13 -215 13 l-210 0 8 68 c17 164 14 157 62 160 25 2 42 -1 42
-7 0 -14 57 -14 65 -1 3 5 24 10 45 10 21 0 42 5 46 11 10 17 44 297 38 314
-5 12 -28 15 -120 15 -84 0 -114 3 -114 13 0 6 5 55 12 108 l12 96 170 0 c164
0 251 7 260 22 7 11 36 241 36 283 l0 38 -339 0 c-187 0 -345 1 -353 3 -7 2
-33 2 -58 0z"/>
<path d="M2815 2042 c-22 -2 -44 -8 -49 -13 -6 -5 -25 -9 -43 -9 -25 0 -36 -6
-43 -22 -12 -30 -42 -287 -35 -299 4 -5 64 -9 136 -9 l129 0 0 -28 c0 -24 -54
-472 -111 -926 -18 -142 -20 -169 -8 -177 20 -12 346 -11 354 1 3 6 23 10 44
10 21 0 43 6 48 13 6 6 17 73 26 147 9 74 39 318 67 542 27 223 50 411 50 417
0 7 32 11 98 10 53 -1 117 2 142 7 39 8 45 13 51 41 10 51 33 282 28 288 -6 5
-823 12 -884 7z"/>
<path d="M1831 401 c-18 -18 -21 -34 -21 -100 0 -87 12 -111 55 -111 44 0 55
24 55 114 0 87 -5 97 -47 110 -15 5 -28 1 -42 -13z"/>
<path d="M3402 404 c-20 -14 -22 -24 -22 -103 0 -95 7 -111 51 -111 42 0 53
23 54 112 0 72 -2 82 -24 99 -28 23 -31 23 -59 3z"/>
</g>
</svg>
